<svg width="200" height="200" viewBox="0 0 200 200" fill="none" xmlns="http://www.w3.org/2000/svg">
<defs>
<filter id="filter0_d_stock" x="30" y="30" width="140" height="150" filterUnits="userSpaceOnUse" color-interpolation-filters="sRGB">
<feFlood flood-opacity="0" result="BackgroundImageFix"/>
<feColorMatrix in="SourceAlpha" type="matrix" values="0 0 0 0 0 0 0 0 0 0 0 0 0 0 0 0 0 0 127 0" result="hardAlpha"/>
<feOffset dy="8"/>
<feGaussianBlur stdDeviation="10"/>
<feColorMatrix type="matrix" values="0 0 0 0 0.05 0 0 0 0 0.3 0 0 0 0 0.2 0 0 0 0.3 0"/>
<feBlend mode="normal" in2="BackgroundImageFix" result="effect1_dropShadow_stock"/>
<feBlend mode="normal" in="SourceGraphic" in2="effect1_dropShadow_stock" result="shape"/>
</filter>
<linearGradient id="paint0_linear_stock" x1="100" y1="50" x2="100" y2="150" gradientUnits="userSpaceOnUse">
<stop stop-color="#10B981"/>
<stop offset="1" stop-color="#059669"/>
</linearGradient>
<linearGradient id="paint1_left" x1="50" y1="80" x2="100" y2="100" gradientUnits="userSpaceOnUse">
<stop stop-color="#34D399"/>
<stop offset="1" stop-color="#059669"/>
</linearGradient>
<linearGradient id="paint2_right" x1="150" y1="80" x2="100" y2="100" gradientUnits="userSpaceOnUse">
<stop stop-color="#047857"/>
<stop offset="1" stop-color="#064E3B"/>
</linearGradient>
<linearGradient id="paint3_top" x1="100" y1="50" x2="100" y2="100" gradientUnits="userSpaceOnUse">
<stop stop-color="#6EE7B7"/>
<stop offset="1" stop-color="#34D399"/>
</linearGradient>
</defs>
<g filter="url(#filter0_d_stock)">
<!-- Isometric Cube -->
<!-- Right Face -->
<path d="M100 100L150 75V125L100 150V100Z" fill="url(#paint2_right)"/>
<!-- Left Face -->
<path d="M100 100L50 75V125L100 150V100Z" fill="url(#paint1_left)"/>
<!-- Top Face -->
<path d="M100 100L150 75L100 50L50 75L100 100Z" fill="url(#paint3_top)"/>

<!-- Highlight Lines for Box details -->
<path d="M100 100L100 150" stroke="#065F46" stroke-width="1"/>
<path d="M50 75L100 50L150 75" stroke="#A7F3D0" stroke-width="1" stroke-opacity="0.5"/>

<!-- Arrow Icon on Left Face -->
<path d="M65 110L75 100L85 110M75 100V125" stroke="white" stroke-width="3" stroke-linecap="round" stroke-linejoin="round" opacity="0.9"/>
</g>
</svg>
